<mxfile host="app.diagrams.net" modified="2022-05-31T11:33:31.302Z" agent="5.0 (Windows NT 10.0; Win64; x64) AppleWebKit/537.36 (KHTML, like Gecko) Chrome/102.0.5005.62 Safari/537.36" etag="Jd-uWLRHI8AMijZ2sgVi" version="18.1.2" type="github">
  <diagram id="kgpKYQtTHZ0yAKxKKP6v" name="Page-1">
    <mxGraphModel dx="1038" dy="571" grid="1" gridSize="10" guides="1" tooltips="1" connect="1" arrows="1" fold="1" page="1" pageScale="1" pageWidth="850" pageHeight="1100" math="0" shadow="0">
      <root>
        <mxCell id="0" />
        <mxCell id="1" parent="0" />
        <mxCell id="8xDgFRKG9XCOXOLOuy8C-5" value="" style="shape=actor;whiteSpace=wrap;html=1;fontSize=14;" vertex="1" parent="1">
          <mxGeometry x="100" y="50" width="40" height="60" as="geometry" />
        </mxCell>
        <mxCell id="8xDgFRKG9XCOXOLOuy8C-6" value="" style="shape=datastore;whiteSpace=wrap;html=1;fontSize=14;" vertex="1" parent="1">
          <mxGeometry x="670" y="220" width="60" height="60" as="geometry" />
        </mxCell>
        <mxCell id="8xDgFRKG9XCOXOLOuy8C-10" value="" style="endArrow=classic;html=1;rounded=0;fontSize=14;" edge="1" parent="1">
          <mxGeometry width="50" height="50" relative="1" as="geometry">
            <mxPoint x="480" y="110" as="sourcePoint" />
            <mxPoint x="570" y="210" as="targetPoint" />
          </mxGeometry>
        </mxCell>
        <mxCell id="8xDgFRKG9XCOXOLOuy8C-11" value="" style="endArrow=classic;html=1;rounded=0;fontSize=14;" edge="1" parent="1">
          <mxGeometry width="50" height="50" relative="1" as="geometry">
            <mxPoint x="510" y="210" as="sourcePoint" />
            <mxPoint x="430" y="130" as="targetPoint" />
          </mxGeometry>
        </mxCell>
        <mxCell id="8xDgFRKG9XCOXOLOuy8C-12" value="" style="endArrow=block;html=1;rounded=0;fontSize=14;endFill=0;" edge="1" parent="1">
          <mxGeometry width="50" height="50" relative="1" as="geometry">
            <mxPoint x="150" y="105" as="sourcePoint" />
            <mxPoint x="320" y="105" as="targetPoint" />
          </mxGeometry>
        </mxCell>
        <mxCell id="8xDgFRKG9XCOXOLOuy8C-13" value="" style="endArrow=classic;html=1;rounded=0;fontSize=14;" edge="1" parent="1">
          <mxGeometry width="50" height="50" relative="1" as="geometry">
            <mxPoint x="370" y="130" as="sourcePoint" />
            <mxPoint x="290" y="210" as="targetPoint" />
          </mxGeometry>
        </mxCell>
        <mxCell id="8xDgFRKG9XCOXOLOuy8C-14" value="" style="endArrow=classic;html=1;rounded=0;fontSize=14;" edge="1" parent="1">
          <mxGeometry width="50" height="50" relative="1" as="geometry">
            <mxPoint x="240" y="210" as="sourcePoint" />
            <mxPoint x="140" y="120" as="targetPoint" />
          </mxGeometry>
        </mxCell>
        <mxCell id="8xDgFRKG9XCOXOLOuy8C-4" value="&lt;font style=&quot;font-size: 14px;&quot;&gt;&lt;b&gt;Vue&lt;/b&gt;&lt;/font&gt;" style="rounded=1;whiteSpace=wrap;html=1;fillColor=#dae8fc;strokeColor=#6c8ebf;" vertex="1" parent="1">
          <mxGeometry x="190" y="220" width="120" height="60" as="geometry" />
        </mxCell>
        <mxCell id="8xDgFRKG9XCOXOLOuy8C-2" value="&lt;font style=&quot;font-size: 14px;&quot;&gt;&lt;b&gt;Contrôleur&lt;/b&gt;&lt;/font&gt;" style="rounded=1;whiteSpace=wrap;html=1;fillColor=#f8cecc;strokeColor=#b85450;" vertex="1" parent="1">
          <mxGeometry x="350" y="60" width="120" height="60" as="geometry" />
        </mxCell>
        <mxCell id="8xDgFRKG9XCOXOLOuy8C-15" value="" style="endArrow=classic;startArrow=classic;html=1;rounded=0;fontSize=14;entryX=0;entryY=0.5;entryDx=0;entryDy=0;exitX=1;exitY=0.5;exitDx=0;exitDy=0;" edge="1" parent="1" source="8xDgFRKG9XCOXOLOuy8C-3" target="8xDgFRKG9XCOXOLOuy8C-6">
          <mxGeometry width="100" height="100" relative="1" as="geometry">
            <mxPoint x="250" y="340" as="sourcePoint" />
            <mxPoint x="350" y="240" as="targetPoint" />
          </mxGeometry>
        </mxCell>
        <mxCell id="8xDgFRKG9XCOXOLOuy8C-3" value="&lt;font style=&quot;font-size: 14px;&quot;&gt;&lt;b&gt;Modèle&lt;/b&gt;&lt;/font&gt;" style="rounded=1;whiteSpace=wrap;html=1;fillColor=#d5e8d4;strokeColor=#82b366;" vertex="1" parent="1">
          <mxGeometry x="490" y="220" width="120" height="60" as="geometry" />
        </mxCell>
        <mxCell id="8xDgFRKG9XCOXOLOuy8C-16" value="BDD" style="text;html=1;align=center;verticalAlign=middle;resizable=0;points=[];autosize=1;strokeColor=none;fillColor=none;fontSize=14;" vertex="1" parent="1">
          <mxGeometry x="675" y="290" width="50" height="20" as="geometry" />
        </mxCell>
        <mxCell id="8xDgFRKG9XCOXOLOuy8C-17" value="Requette http" style="text;html=1;align=center;verticalAlign=middle;resizable=0;points=[];autosize=1;strokeColor=none;fillColor=none;fontSize=14;" vertex="1" parent="1">
          <mxGeometry x="182" y="70" width="100" height="20" as="geometry" />
        </mxCell>
        <mxCell id="8xDgFRKG9XCOXOLOuy8C-18" value="Demande &lt;br&gt;des données" style="text;html=1;align=left;verticalAlign=middle;resizable=0;points=[];autosize=1;strokeColor=none;fillColor=none;fontSize=14;" vertex="1" parent="1">
          <mxGeometry x="530" y="120" width="100" height="40" as="geometry" />
        </mxCell>
        <mxCell id="8xDgFRKG9XCOXOLOuy8C-19" value="Obtention&lt;br&gt;des données" style="text;html=1;align=left;verticalAlign=middle;resizable=0;points=[];autosize=1;strokeColor=none;fillColor=none;fontSize=14;" vertex="1" parent="1">
          <mxGeometry x="400" y="170" width="100" height="40" as="geometry" />
        </mxCell>
        <mxCell id="8xDgFRKG9XCOXOLOuy8C-20" value="Routes" style="text;html=1;align=center;verticalAlign=middle;resizable=0;points=[];autosize=1;strokeColor=none;fillColor=none;fontSize=14;fontStyle=1" vertex="1" parent="1">
          <mxGeometry x="285" y="112" width="60" height="20" as="geometry" />
        </mxCell>
        <mxCell id="8xDgFRKG9XCOXOLOuy8C-21" value="Réponse &lt;br&gt;HTML" style="text;html=1;align=right;verticalAlign=middle;resizable=0;points=[];autosize=1;strokeColor=none;fillColor=none;fontSize=14;" vertex="1" parent="1">
          <mxGeometry x="112" y="160" width="70" height="40" as="geometry" />
        </mxCell>
      </root>
    </mxGraphModel>
  </diagram>
</mxfile>
